<svg xmlns="http://www.w3.org/2000/svg" version="1.1" xmlns:xlink="http://www.w3.org/1999/xlink" width="512" height="512" x="0" y="0" viewBox="0 0 152 152" style="enable-background:new 0 0 512 512" xml:space="preserve" class=""><g><g data-name="Layer 2"><path d="M117 0H35A35.1 35.1 0 0 0 0 35v82a35.1 35.1 0 0 0 35 35h82a35.1 35.1 0 0 0 35-35V35a35.1 35.1 0 0 0-35-35zm-9.79 82.55H84.14a1.34 1.34 0 0 0-1.35 1.35V107a6.79 6.79 0 0 1-13.58 0V83.9a1.34 1.34 0 0 0-1.35-1.35H44.79a6.79 6.79 0 1 1 0-13.58h23.07a1.34 1.34 0 0 0 1.35-1.35V44.55a6.79 6.79 0 0 1 13.58 0v23.07A1.34 1.34 0 0 0 84.14 69h23.07a6.79 6.79 0 0 1 0 13.58z" data-name="01.Add" fill="#beccea" opacity="1" data-original="#000000" class=""></path></g></g></svg>