<svg height="512" viewBox="0 0 512 512" width="512" xmlns="http://www.w3.org/2000/svg"><g id="Layer_2" data-name="Layer 2"><g id="cross"><circle id="background" cx="256" cy="256" fill="#ff2147" r="256"/><path d="m312.75 256 76.72-76.72a22.29 22.29 0 0 0 0-31.53l-25.22-25.22a22.29 22.29 0 0 0 -31.53 0l-76.72 76.72-76.72-76.72a22.29 22.29 0 0 0 -31.53 0l-25.22 25.22a22.29 22.29 0 0 0 0 31.53l76.72 76.72-76.72 76.72a22.29 22.29 0 0 0 0 31.53l25.22 25.22a22.29 22.29 0 0 0 31.53 0l76.72-76.72 76.72 76.72a22.29 22.29 0 0 0 31.53 0l25.22-25.22a22.29 22.29 0 0 0 0-31.53z" fill="#fff"/></g></g></svg>