<svg xmlns="http://www.w3.org/2000/svg" version="1.1" xmlns:xlink="http://www.w3.org/1999/xlink" width="512" height="512" x="0" y="0" viewBox="0 0 682.667 682.667" style="enable-background:new 0 0 512 512" xml:space="preserve" class=""><g><defs><clipPath id="a" clipPathUnits="userSpaceOnUse"><path d="M0 512h512V0H0Z" fill="#333b51" opacity="1" data-original="#000000" class=""></path></clipPath></defs><g clip-path="url(#a)" transform="matrix(1.33333 0 0 -1.33333 0 682.667)"><path d="M0 0a15 15 0 0 1 18.544-18.544L158.55 21.458 40.002 140.006Z" style="fill-opacity:1;fill-rule:nonzero;stroke:none" transform="translate(.728 19.272)" fill="#333b51" data-original="#000000" opacity="1" class=""></path><path d="M0 0a15 15 0 0 1 18.544-18.544L158.55 21.458 40.002 140.006Z" style="stroke-width:1;stroke-linecap:butt;stroke-linejoin:miter;stroke-miterlimit:10;stroke-dasharray:none;stroke-opacity:1" transform="translate(.728 19.272)" fill="none" stroke="#333b51" stroke-width="1" stroke-linecap="butt" stroke-linejoin="miter" stroke-miterlimit="10" stroke-dasharray="none" stroke-opacity="" data-original="#000000" opacity="1"></path><path d="m0 0-63.635 63.636c-8.483 8.483-19.78 13.157-31.81 13.162h-.021c-12.027 0-23.318-4.668-31.794-13.144l-31.836-31.835L-31.817-95.46.019-63.625C8.5-55.144 13.167-43.845 13.162-31.81 13.157-19.779 8.482-8.482 0 0" style="fill-opacity:1;fill-rule:nonzero;stroke:none" transform="translate(498.687 435.05)" fill="#333b51" data-original="#000000" opacity="1" class=""></path><path d="m0 0-63.635 63.636c-8.483 8.483-19.78 13.157-31.81 13.162h-.021c-12.027 0-23.318-4.668-31.794-13.144l-31.836-31.835L-31.817-95.46.019-63.625C8.5-55.144 13.167-43.845 13.162-31.81 13.157-19.779 8.482-8.482 0 0Z" style="stroke-width:1;stroke-linecap:butt;stroke-linejoin:miter;stroke-miterlimit:10;stroke-dasharray:none;stroke-opacity:1" transform="translate(498.687 435.05)" fill="none" stroke="#333b51" stroke-width="1" stroke-linecap="butt" stroke-linejoin="miter" stroke-miterlimit="10" stroke-dasharray="none" stroke-opacity="" data-original="#000000" opacity="1"></path><path d="m0 0 127.279-127.279 260.8 260.8L260.8 260.8Z" style="fill-opacity:1;fill-rule:nonzero;stroke:none" transform="translate(57.578 184.856)" fill="#333b51" data-original="#000000" opacity="1" class=""></path><path d="m0 0 127.279-127.279 260.8 260.8L260.8 260.8Z" style="stroke-width:1;stroke-linecap:butt;stroke-linejoin:miter;stroke-miterlimit:10;stroke-dasharray:none;stroke-opacity:1" transform="translate(57.578 184.856)" fill="none" stroke="#333b51" stroke-width="1" stroke-linecap="butt" stroke-linejoin="miter" stroke-miterlimit="10" stroke-dasharray="none" stroke-opacity="" data-original="#000000" opacity="1"></path></g></g></svg>