<svg xmlns="http://www.w3.org/2000/svg" version="1.1" xmlns:xlink="http://www.w3.org/1999/xlink" width="512" height="512" x="0" y="0" viewBox="0 0 121.946 121.946" style="enable-background:new 0 0 512 512" xml:space="preserve" class=""><g><path d="m50.077 98.919-2.78-1.024a21.177 21.177 0 0 0-.234-6.146l2.684-1.237a3.35 3.35 0 0 0 1.639-4.441l-1.567-3.4a3.349 3.349 0 0 0-4.437-1.641l-2.688 1.239a21.196 21.196 0 0 0-4.519-4.176l1.026-2.775a3.355 3.355 0 0 0-1.98-4.301l-3.515-1.298c-1.677-.617-3.68.305-4.298 1.979l-1.025 2.778a21.358 21.358 0 0 0-6.146.233L21 72.024a3.352 3.352 0 0 0-4.439-1.641l-3.403 1.565a3.355 3.355 0 0 0-1.64 4.441l1.237 2.684a21.231 21.231 0 0 0-4.174 4.523L5.807 82.57c-1.675-.624-3.681.3-4.302 1.979L.208 88.064a3.336 3.336 0 0 0 .1 2.561 3.315 3.315 0 0 0 1.88 1.735l2.78 1.028a21.11 21.11 0 0 0 .234 6.146l-2.687 1.237a3.35 3.35 0 0 0-1.639 4.438l1.568 3.404a3.348 3.348 0 0 0 4.438 1.638l2.687-1.235a21.17 21.17 0 0 0 4.52 4.174l-1.026 2.777a3.305 3.305 0 0 0 .1 2.559 3.325 3.325 0 0 0 1.879 1.743l3.515 1.296c.836.31 1.747.273 2.559-.099a3.318 3.318 0 0 0 1.738-1.882l1.027-2.779c2.025.22 4.093.147 6.147-.231l1.235 2.685a3.352 3.352 0 0 0 4.44 1.638l3.402-1.566a3.346 3.346 0 0 0 1.639-4.439l-1.237-2.685a21.133 21.133 0 0 0 4.173-4.52l2.778 1.027c.841.311 1.75.272 2.563-.103a3.329 3.329 0 0 0 1.736-1.879l1.297-3.515a3.349 3.349 0 0 0-1.977-4.298zm-18.408 8.743a13.116 13.116 0 0 1-5.533 1.216 13.275 13.275 0 0 1-12.025-7.697c-3.052-6.631-.144-14.507 6.483-17.559a13.106 13.106 0 0 1 5.529-1.217c5.151 0 9.875 3.021 12.029 7.697 3.052 6.631.143 14.507-6.483 17.56zM83.179 108.5l-1.547-.569a11.73 11.73 0 0 0-.131-3.423l1.494-.689a1.863 1.863 0 0 0 .913-2.473l-.872-1.894a1.863 1.863 0 0 0-2.471-.914l-1.497.689a11.778 11.778 0 0 0-2.515-2.325l.57-1.546a1.871 1.871 0 0 0-1.103-2.396l-1.958-.722c-.934-.346-2.048.168-2.394 1.102l-.571 1.548a11.86 11.86 0 0 0-3.421.13l-.688-1.493a1.867 1.867 0 0 0-2.474-.914l-1.895.873a1.867 1.867 0 0 0-.913 2.473l.689 1.495a11.83 11.83 0 0 0-2.326 2.519l-1.544-.57c-.931-.347-2.049.165-2.394 1.101l-.724 1.958a1.861 1.861 0 0 0 1.104 2.393l1.547.572a11.733 11.733 0 0 0 .13 3.423l-1.495.688a1.865 1.865 0 0 0-.913 2.472l.874 1.896a1.865 1.865 0 0 0 2.471.913l1.495-.688a11.74 11.74 0 0 0 2.519 2.323l-.571 1.545c-.174.468-.154.975.055 1.427a1.86 1.86 0 0 0 1.048.971l1.956.722c.467.172.972.152 1.425-.056s.797-.58.968-1.046l.571-1.55c1.129.123 2.278.084 3.423-.129l.688 1.495a1.863 1.863 0 0 0 2.471.911l1.896-.872a1.865 1.865 0 0 0 .912-2.472l-.688-1.496a11.726 11.726 0 0 0 2.323-2.516l1.547.57c.468.175.975.152 1.428-.056.449-.207.795-.581.967-1.047l.722-1.957a1.869 1.869 0 0 0-1.101-2.396zm-10.25 4.87a7.338 7.338 0 0 1-3.08.677 7.394 7.394 0 0 1-6.696-4.287c-1.7-3.69-.082-8.077 3.61-9.775a7.303 7.303 0 0 1 3.079-.677 7.395 7.395 0 0 1 6.696 4.285c1.698 3.691.08 8.075-3.609 9.777zM118.269 49.597l-4.673-1.725a35.593 35.593 0 0 0-.393-10.337l4.514-2.077c2.816-1.294 4.052-4.647 2.754-7.468l-2.634-5.718c-1.298-2.819-4.646-4.059-7.461-2.759l-4.519 2.084a35.702 35.702 0 0 0-7.596-7.02l1.723-4.668c1.072-2.911-.418-6.155-3.328-7.229L90.747.494c-2.818-1.036-6.186.515-7.228 3.33l-1.724 4.673a35.845 35.845 0 0 0-10.333.391l-2.08-4.51a5.633 5.633 0 0 0-7.465-2.758l-5.72 2.634a5.638 5.638 0 0 0-2.759 7.466l2.083 4.513a35.766 35.766 0 0 0-7.02 7.603l-4.665-1.724c-2.815-1.049-6.188.504-7.23 3.324l-2.181 5.912a5.603 5.603 0 0 0 .166 4.304 5.593 5.593 0 0 0 3.163 2.917l4.673 1.73a35.477 35.477 0 0 0 .392 10.335l-4.514 2.078a5.63 5.63 0 0 0-2.756 7.461l2.635 5.724c1.298 2.813 4.646 4.054 7.463 2.755l4.515-2.08a35.532 35.532 0 0 0 7.602 7.019l-1.726 4.669a5.57 5.57 0 0 0 .167 4.303 5.602 5.602 0 0 0 3.159 2.929l5.909 2.179a5.605 5.605 0 0 0 4.303-.164 5.58 5.58 0 0 0 2.922-3.163l1.729-4.675a35.59 35.59 0 0 0 10.336-.389l2.076 4.512c1.298 2.814 4.648 4.056 7.466 2.755l5.72-2.634a5.629 5.629 0 0 0 2.755-7.464l-2.079-4.513a35.66 35.66 0 0 0 7.017-7.601l4.672 1.729a5.593 5.593 0 0 0 4.307-.171 5.597 5.597 0 0 0 2.919-3.159l2.184-5.911c1.071-2.909-.422-6.153-3.331-7.226zM87.322 64.294a22.104 22.104 0 0 1-9.301 2.046c-8.663 0-16.597-5.082-20.22-12.945-5.132-11.146-.242-24.388 10.899-29.519a22.054 22.054 0 0 1 9.297-2.045c8.662 0 16.601 5.079 20.224 12.94 5.13 11.149.242 24.392-10.899 29.523z" fill="#beccea" opacity="1" data-original="#000000" class=""></path></g></svg>