<svg xmlns="http://www.w3.org/2000/svg" version="1.1" xmlns:xlink="http://www.w3.org/1999/xlink" width="512" height="512" x="0" y="0" viewBox="0 0 24 24" style="enable-background:new 0 0 512 512" xml:space="preserve" class=""><g><path d="M11.87 2a10.164 10.164 0 0 0-5.7 1.752L4.707 2.294A1 1 0 0 0 3 3v5a1 1 0 0 0 1 1h5a1 1 0 0 0 .707-1.707l-.621-.621A6.126 6.126 0 0 1 18 12a6.145 6.145 0 0 1-12.065 1.5 2 2 0 0 0-3.87 1.01A10.144 10.144 0 0 0 22 12 10.077 10.077 0 0 0 11.87 2z" fill="#333b51" opacity="1" data-original="#000000" class=""></path></g></svg>